<?xml version="1.0" standalone="no"?>
<!DOCTYPE svg PUBLIC "-//W3C//DTD SVG 20010904//EN"
 "http://www.w3.org/TR/2001/REC-SVG-20010904/DTD/svg10.dtd">
<svg version="1.0" xmlns="http://www.w3.org/2000/svg"
 width="1519.000000pt" height="1519.000000pt" viewBox="0 0 1519.000000 1519.000000"
 preserveAspectRatio="xMidYMid meet">
<metadata>
Created by potrace 1.16, written by Peter Selinger 2001-2019
</metadata>
<g transform="translate(0.000000,1519.000000) scale(0.100000,-0.100000)"
fill="#000000" stroke="none">
<path d="M6823 14577 c-364 -210 -662 -386 -662 -392 0 -5 80 -55 177 -111 97
-55 1446 -833 2997 -1729 1551 -896 2938 -1696 3083 -1779 l263 -151 -3 -3723
c-2 -2047 0 -3722 4 -3722 4 0 29 13 55 28 26 16 77 42 113 59 36 18 317 177
625 355 l560 324 3 3735 2 3736 -23 10 c-12 6 -328 187 -702 403 -643 372
-1204 695 -3965 2290 -641 370 -1250 722 -1355 782 -104 61 -251 146 -327 189
-75 44 -147 79 -160 78 -12 0 -321 -172 -685 -382z"/>
<path d="M4640 13314 c-771 -445 -840 -485 -840 -493 0 -5 301 -181 1040 -607
58 -33 197 -114 310 -179 113 -65 273 -157 355 -205 83 -47 224 -129 315 -182
91 -52 208 -120 260 -150 52 -30 928 -536 1945 -1123 1018 -588 1949 -1126
2070 -1196 l220 -127 3 -3726 c1 -2049 5 -3726 9 -3726 3 0 312 176 685 392
l678 391 0 3726 0 3726 -1871 1080 c-1029 594 -1933 1115 -2008 1159 -75 43
-210 121 -301 174 -1704 984 -2345 1352 -2358 1352 -9 0 -240 -129 -512 -286z"/>
<path d="M1880 11721 l-895 -517 -3 -3776 -2 -3776 669 -386 c368 -212 674
-386 680 -386 8 0 11 1025 11 3804 l0 3804 173 100 c94 54 181 104 192 110 18
9 68 -17 343 -176 l323 -187 -1 -4025 c0 -2214 4 -4030 8 -4036 4 -6 302 -181
662 -389 360 -207 659 -381 665 -386 5 -5 17 -9 27 -9 17 0 18 90 16 2335 -3
2332 -3 2334 17 2321 11 -7 549 -318 1195 -691 646 -373 1358 -784 1583 -914
l407 -236 0 -2027 0 -2028 24 0 c14 0 89 38 168 83 79 46 337 195 573 332 237
136 472 272 523 302 l92 54 -2 3726 -3 3725 -345 200 c-190 110 -408 236 -485
280 -77 44 -196 113 -265 153 -69 40 -226 131 -350 202 -124 72 -792 458
-1485 858 -693 400 -1785 1031 -2427 1401 -642 371 -1173 674 -1180 673 -7 0
-416 -233 -908 -518z m4445 -3091 c803 -464 1498 -865 1545 -892 l85 -49 -3
-904 -2 -904 -58 33 c-59 35 -847 490 -2307 1333 l-840 485 3 904 2 903 58
-33 c31 -18 714 -413 1517 -876z"/>
</g>
</svg>
