<?xml version="1.0" standalone="no"?>
<!DOCTYPE svg PUBLIC "-//W3C//DTD SVG 20010904//EN"
 "http://www.w3.org/TR/2001/REC-SVG-20010904/DTD/svg10.dtd">
<svg version="1.0" xmlns="http://www.w3.org/2000/svg"
 width="60.000000pt" height="60.000000pt" viewBox="0 0 60.000000 60.000000"
 preserveAspectRatio="xMidYMid meet">
<metadata>
Created by potrace 1.16, written by Peter Selinger 2001-2019
</metadata>
<g transform="translate(0.000000,60.000000) scale(0.002000,-0.002000)"
fill="#000000" stroke="none">
<path d="M14770 21240 c-113 -66 -411 -238 -662 -382 -251 -145 -457 -268
-458 -274 0 -6 10 -15 23 -21 12 -6 1138 -655 2502 -1443 1364 -787 2821
-1628 3238 -1868 l758 -437 -3 -3723 c-2 -2047 -2 -3722 -1 -3722 1 0 24 13
50 28 26 16 77 42 113 59 36 18 317 177 625 355 l560 324 3 3735 2 3736 -23
10 c-12 6 -328 187 -702 403 -643 372 -1204 695 -3965 2290 -641 370 -1250
722 -1355 782 -104 61 -251 146 -327 189 -75 44 -145 79 -155 78 -10 0 -110
-54 -223 -119z"/>
<path d="M11960 19616 c-365 -211 -666 -388 -667 -393 -2 -5 36 -32 84 -59 49
-28 1197 -691 2553 -1474 1356 -783 2782 -1607 3170 -1831 l705 -407 5 -3725
5 -3726 678 391 677 391 0 3726 0 3726 -1871 1080 c-1029 594 -1933 1115
-2008 1159 -75 43 -210 121 -301 174 -1616 934 -2344 1352 -2354 1352 -6 0
-310 -173 -676 -384z"/>
<path d="M10155 18575 c-60 -36 -463 -269 -895 -518 l-785 -453 -3 -3776 -2
-3776 669 -386 c368 -212 672 -386 675 -386 3 0 7 1713 8 3806 l3 3805 192
111 192 110 326 -188 325 -189 0 -4031 0 -4032 672 -388 c370 -214 678 -390
685 -392 11 -3 13 424 11 2332 -2 1285 -2 2336 -1 2336 2 0 1845 -1064 2383
-1375 69 -40 242 -140 385 -222 143 -83 302 -175 353 -204 l92 -54 0 -2027 c0
-2007 0 -2028 19 -2028 11 0 84 38 163 83 79 46 337 195 573 332 237 136 472
272 523 302 l92 54 -2 3726 -3 3725 -345 200 c-190 110 -408 236 -485 280 -77
44 -196 113 -265 153 -69 40 -226 131 -350 202 -124 72 -792 458 -1485 858
-3154 1821 -3594 2075 -3602 2074 -4 0 -57 -29 -118 -64z m3140 -3245 c556
-321 1057 -611 1116 -644 58 -34 314 -182 570 -329 l464 -269 0 -908 0 -909
-30 19 c-16 10 -363 210 -770 445 -407 235 -1118 645 -1580 912 l-840 485 0
908 0 909 30 -18 c17 -10 485 -281 1040 -601z"/>
</g>
</svg>
